<svg xmlns="http://www.w3.org/2000/svg" viewBox="0 0 1112 242" width="1112" height="242">
<path d="M 932.0 158.5 L 904.5 158.0 L 961.0 83.5 L 974.5 102.0 L 932.0 158.5 Z M 78.0 159.5 L 22.0 84.5 L 49.0 84.5 L 91.5 140.0 L 91.5 143.0 L 78.0 159.5 Z M 136.0 159.5 L 107.0 122.5 L 95.0 137.5 L 81.5 121.0 L 83.5 115.0 L 107.0 84.5 L 149.5 141.0 L 136.0 159.5 Z M 152.0 137.5 L 138.5 120.0 L 139.5 117.0 L 164.0 84.5 L 191.0 84.5 L 152.0 137.5 Z M 170.0 158.5 L 142.5 157.0 L 199.0 84.5 L 212.5 102.0 L 170.0 158.5 Z M 382.0 159.5 L 362.5 158.0 L 362.0 106.5 L 298.0 106.5 L 297.5 159.0 L 276.0 158.5 L 275.5 107.0 L 242.0 106.5 L 241.5 85.0 L 418.0 84.5 L 418.0 106.5 L 384.5 107.0 L 384.5 158.0 L 382.0 159.5 Z M 840.0 159.5 L 786.0 88.5 L 785.0 158.5 L 758.0 158.5 L 718.0 111.5 L 717.5 158.0 L 697.0 159.5 L 695.5 85.0 L 723.0 84.5 L 763.0 131.5 L 764.0 84.5 L 811.0 84.5 L 853.5 140.0 L 853.5 143.0 L 840.0 159.5 Z M 914.0 137.5 L 900.5 120.0 L 901.5 117.0 L 926.0 84.5 L 953.0 84.5 L 914.0 137.5 Z M 1045.0 159.5 L 1027.5 158.0 L 1026.5 125.0 L 988.0 84.5 L 1015.0 85.5 L 1040.0 111.5 L 1063.0 84.5 L 1089.5 85.0 L 1049.5 132.0 L 1049.5 158.0 L 1045.0 159.5 Z M 898.0 159.5 L 869.0 122.5 L 857.0 137.5 L 843.5 121.0 L 845.5 115.0 L 868.0 85.5 L 911.5 141.0 L 898.0 159.5 Z M 293.5 156.0 L 294.5 104.0 L 328.0 103.5 L 328.5 88.0 L 245.0 87.5 L 245.0 103.5 L 279.5 104.0 L 279.5 156.0 L 293.5 156.0 Z M 380.5 156.0 L 381.5 104.0 L 415.0 103.5 L 415.5 88.0 L 333.0 87.5 L 333.0 103.5 L 366.5 104.0 L 366.5 155.0 L 380.5 156.0 Z M 781.5 156.0 L 782.0 87.5 L 766.5 88.0 L 766.0 140.5 L 721.0 87.5 L 698.5 88.0 L 700.0 156.5 L 712.0 156.5 L 714.5 154.0 L 715.0 102.5 L 760.0 156.5 L 781.5 156.0 Z M 1030.5 123.0 L 1037.5 113.0 L 1012.0 87.5 L 996.0 87.5 L 1025.5 121.0 L 1030.5 123.0 Z M 1032.5 148.0 L 1079.5 93.0 L 1082.0 87.5 L 1065.0 87.5 L 1031.5 126.0 L 1030.5 148.0 L 1032.5 148.0 Z M 254.0 158.5 L 227.0 158.5 L 222.5 153.0 L 201.5 125.0 L 214.0 106.5 L 226.5 120.0 L 254.0 158.5 Z M 1016.0 158.5 L 989.0 158.5 L 965.5 128.0 L 963.5 123.0 L 977.0 106.5 L 1016.0 158.5 Z M 1045.5 156.0 L 1045.0 137.5 L 1032.5 152.0 L 1031.5 156.0 L 1045.5 156.0 Z" fill="#ffffff" fill-rule="evenodd"/>
<path d="M 485.0 189.5 L 482.0 189.5 L 477.0 184.5 L 466.5 171.0 L 457.5 153.0 L 453.5 138.0 L 453.5 106.0 L 458.5 88.0 L 465.5 74.0 L 489.0 47.5 L 511.0 34.5 L 540.0 26.5 L 577.0 28.5 L 578.5 31.0 L 562.0 47.5 L 535.0 49.5 L 509.0 60.5 L 494.5 73.0 L 485.5 85.0 L 478.5 101.0 L 475.5 118.0 L 479.5 146.0 L 487.5 162.0 L 494.5 170.0 L 485.0 189.5 Z M 563.0 217.5 L 537.0 216.5 L 523.5 212.0 L 541.0 195.5 L 567.0 195.5 L 585.0 190.5 L 597.0 184.5 L 609.0 175.5 L 622.5 159.0 L 631.5 136.0 L 632.5 114.0 L 628.5 97.0 L 621.5 83.0 L 609.5 69.0 L 616.5 52.0 L 621.0 49.5 L 641.5 72.0 L 652.5 97.0 L 655.5 112.0 L 655.5 131.0 L 649.5 156.0 L 635.5 180.0 L 616.0 198.5 L 594.0 210.5 L 563.0 217.5 Z" fill="#1f5fdb" fill-rule="evenodd"/>
<path d="M 490.0 220.5 L 487.5 220.0 L 487.5 216.0 L 532.5 137.0 L 530.0 134.5 L 505.0 134.5 L 502.5 130.0 L 608.0 23.5 L 611.0 23.5 L 612.5 25.0 L 572.5 104.0 L 572.5 108.0 L 575.0 109.5 L 605.0 109.5 L 605.5 114.0 L 490.0 220.5 Z" fill="#f9980b" fill-rule="evenodd"/>
</svg>